<?xml version="1.0" standalone="no"?>
<!DOCTYPE svg PUBLIC "-//W3C//DTD SVG 20010904//EN"
 "http://www.w3.org/TR/2001/REC-SVG-20010904/DTD/svg10.dtd">
<svg version="1.0" xmlns="http://www.w3.org/2000/svg"
 width="300.000000pt" height="300.000000pt" viewBox="0 0 300.000000 300.000000"
 preserveAspectRatio="xMidYMid meet">

<g transform="translate(0.000000,300.000000) scale(0.100000,-0.100000)"
fill="#000000" stroke="none">
<path d="M1365 2376 c-123 -29 -242 -82 -365 -166 l-55 -38 -45 41 c-61 54
-114 77 -180 77 -78 0 -108 -22 -185 -137 -35 -54 -111 -151 -169 -216 -163
-187 -208 -277 -187 -373 41 -180 352 -555 541 -650 45 -22 62 -26 109 -21
l57 5 38 -59 c190 -294 626 -402 964 -238 100 48 202 140 252 228 31 54 39 61
66 61 123 0 406 278 560 547 98 173 84 234 -102 449 -42 49 -106 134 -142 189
-124 190 -153 215 -244 215 -66 0 -123 -26 -182 -80 l-45 -42 -62 42 c-79 54
-247 134 -324 155 -85 22 -227 28 -300 11z m250 -111 c145 -37 290 -114 416
-219 57 -48 77 -72 91 -109 20 -54 43 -175 54 -284 l7 -73 -221 0 c-234 0
-259 -4 -304 -47 -34 -33 -42 -71 -30 -146 l9 -57 -76 6 c-42 3 -95 1 -119 -4
l-43 -10 6 81 c5 71 4 86 -13 113 -38 59 -63 64 -333 64 l-242 0 6 120 c4 66
14 153 23 192 14 61 22 77 56 107 134 121 313 226 443 261 86 23 191 25 270 5z
m-838 -96 c52 -25 93 -72 93 -106 0 -14 -11 -38 -25 -55 -41 -49 -65 -166 -65
-323 l0 -100 -45 -19 c-51 -21 -85 -61 -85 -102 0 -28 84 -324 102 -359 21
-40 53 -66 98 -77 l45 -12 -44 -13 c-40 -12 -49 -11 -86 7 -129 62 -362 325
-460 519 -48 96 -26 146 157 356 57 66 128 156 157 200 77 116 84 120 158 84z
m1534 10 c11 -6 53 -61 93 -123 40 -61 121 -169 180 -240 150 -180 154 -191
112 -283 -105 -224 -438 -569 -520 -537 -25 10 -19 21 19 34 28 9 95 69 95 85
0 2 22 81 50 175 46 159 49 174 36 204 -18 43 -60 75 -108 82 -21 4 -38 8 -38
11 0 2 -5 47 -11 101 -13 120 -42 250 -69 302 -39 76 -15 136 73 179 48 24 60
25 88 10z m-134 -786 c-6 -149 -11 -186 -38 -290 l-12 -43 -177 0 c-164 0
-179 2 -204 21 -39 31 -44 45 -66 196 -26 179 -26 207 2 233 36 33 72 38 292
39 l209 1 -6 -157z m151 112 c12 -14 22 -32 22 -39 0 -27 -89 -318 -107 -348
-10 -17 -29 -38 -42 -47 l-24 -16 7 35 c26 125 37 211 43 326 l6 131 36 -8
c20 -4 46 -20 59 -34z m-1544 -37 c9 -104 34 -231 63 -321 13 -44 22 -81 19
-85 -11 -11 -56 18 -75 48 -10 17 -40 105 -65 195 -51 179 -51 191 2 219 44
25 49 20 56 -56z m552 54 c44 -35 45 -51 24 -204 -11 -79 -28 -162 -36 -186
-24 -66 -45 -72 -237 -72 l-164 0 -26 78 c-31 95 -55 211 -65 320 l-8 82 245
0 c218 0 248 -2 267 -18z m299 -224 c3 -3 12 -45 20 -94 15 -91 30 -122 79
-158 25 -19 44 -21 202 -24 201 -4 189 6 131 -107 -143 -274 -536 -367 -852
-202 -78 41 -191 155 -233 233 -17 34 -32 64 -32 67 0 3 71 7 158 9 179 4 209
13 241 76 10 20 24 71 30 112 13 83 15 86 51 93 32 7 198 3 205 -5z"/>
<path d="M1117 1790 c-15 -12 -36 -34 -48 -51 -17 -25 -19 -32 -8 -45 18 -22
111 -14 147 13 36 27 39 49 11 79 -28 30 -67 31 -102 4z m74 -26 c11 -14 10
-18 -6 -30 -10 -8 -35 -14 -54 -14 l-36 1 33 29 c37 34 45 36 63 14z"/>
<path d="M1830 1785 c-20 -21 -22 -28 -12 -50 14 -30 66 -55 116 -55 78 0 84
21 25 85 -50 54 -91 60 -129 20z m95 -35 l29 -30 -35 0 c-19 0 -44 6 -54 14
-16 12 -17 16 -6 30 19 23 33 20 66 -14z"/>
<path d="M1889 1375 c-83 -45 -73 -219 14 -248 112 -37 164 193 56 248 -34 18
-37 18 -70 0z"/>
<path d="M1094 1376 c-60 -27 -82 -145 -38 -211 22 -33 69 -51 99 -37 86 39
85 220 -1 252 -14 6 -26 10 -27 10 -1 -1 -16 -7 -33 -14z"/>
<path d="M1432 1088 c-18 -18 -15 -109 4 -137 9 -13 30 -29 46 -35 l29 -13
-26 -31 c-15 -18 -36 -32 -46 -32 -32 0 -83 25 -122 60 -20 18 -37 30 -37 27
0 -15 58 -105 88 -134 73 -73 160 -90 247 -49 56 26 79 48 124 120 42 67 39
74 -11 32 -57 -49 -109 -64 -142 -42 -34 22 -53 56 -31 56 9 0 30 13 46 29 25
25 29 37 29 83 0 30 -5 59 -12 66 -7 7 -43 12 -93 12 -50 0 -86 -5 -93 -12z
m186 -278 l37 -1 -23 -19 c-54 -45 -135 -48 -202 -6 l-35 21 44 6 c30 4 51 14
65 30 l21 25 28 -28 c21 -20 39 -28 65 -28z"/>
</g>
</svg>
